# xmcd CD database file
#
# Track frame offsets:
#	150
#	19222
#	40572
#	55960
#	72152
#	84487
#	91952
#	104255
#	120070
#	132557
#	147947
#	163782
#	180027
#	198680
#	212980
#	227930
#	239042
#	255145
#	275992
#	294582
#
# Disc length: 4126 seconds
#
# Revision: 4
# Processed by: cddbd v1.5.1PL0 Copyright (c) Steve Scherf et al.
# Submitted via: CDex 1.50
#
DISCID=23101c14
DTITLE=Roberta Miranda - Roberta Miranda (ao Vivo)
DYEAR=1900
DGENRE=Country
TTITLE0=Estrada Da Vida
TTITLE1=Um Dia De Domingo
TTITLE2=Cadê Você
TTITLE3=Outra Vez
TTITLE4=Tudo Acabado
TTITLE5=Dói
TTITLE6=Marcas
TTITLE7=Criamos Raízes
TTITLE8=Garçon
TTITLE9=Amanhã
TTITLE10=Meu Dengo
TTITLE11=A Mulher Em Mim
TTITLE12=Majestade, O Sabiá
TTITLE13=De Igual Pra Igual
TTITLE14=Duas Taças
TTITLE15=São Tantas Coisas
TTITLE16=Sol Da Minha Vida
TTITLE17=Eu Te amo, Eu Te Amo
TTITLE18=Tinha Que Acontecer
TTITLE19=Vá Com Deus
EXTD=
EXTT0=
EXTT1=
EXTT2=
EXTT3=
EXTT4=
EXTT5=
EXTT6=
EXTT7=
EXTT8=
EXTT9=
EXTT10=
EXTT11=
EXTT12=
EXTT13=
EXTT14=
EXTT15=
EXTT16=
EXTT17=
EXTT18=
EXTT19=
PLAYORDER=
